<svg xmlns="http://www.w3.org/2000/svg" viewBox="0 0 24 24" fill="currentColor">
  <rect x="0" y="14.6" width="24" height="0.8" rx="0.1" />
  <rect x="4.2" y="10" width="0.3" height="10" rx="0.1" />
  <rect x="4.7" y="10" width="0.3" height="10" rx="0.1" />
  <rect x="5.2" y="10" width="0.3" height="10" rx="0.1" />
  <rect x="5.7" y="10" width="0.3" height="10" rx="0.1" />
  <rect x="6.2" y="10" width="0.3" height="10" rx="0.1" />
  <rect x="6.7" y="10" width="0.3" height="10" rx="0.1" />
  <rect x="7.2" y="10" width="0.3" height="10" rx="0.1" />
  <rect x="7.7" y="10" width="0.3" height="10" rx="0.1" />
  <rect x="8.2" y="10" width="0.3" height="10" rx="0.1" />
  <rect x="15.5" y="10" width="0.3" height="10" rx="0.1" />
  <rect x="16" y="10" width="0.3" height="10" rx="0.1" />
  <rect x="16.5" y="10" width="0.3" height="10" rx="0.1" />
  <rect x="17" y="10" width="0.3" height="10" rx="0.1" />
  <rect x="17.5" y="10" width="0.3" height="10" rx="0.1" />
  <rect x="18" y="10" width="0.3" height="10" rx="0.1" />
  <rect x="18.5" y="10" width="0.3" height="10" rx="0.1" />
  <rect x="19" y="10" width="0.3" height="10" rx="0.1" />
  <rect x="19.5" y="10" width="0.3" height="10" rx="0.1" />
  <rect x="3.5" y="13.5" width="0.4" height="3" rx="0.1" />
  <rect x="20.1" y="13.5" width="0.4" height="3" rx="0.1" />
</svg>
